<?xml version="1.0" encoding="UTF-8"?>
<!DOCTYPE svg PUBLIC "-//W3C//DTD SVG 1.1//EN" "http://www.w3.org/Graphics/SVG/1.1/DTD/svg11.dtd">
<!-- Creator: CorelDRAW 2019 (64 Bit) -->
<svg xmlns="http://www.w3.org/2000/svg" xml:space="preserve" width="30.2281mm" height="7.988mm" version="1.1" style="shape-rendering:geometricPrecision; text-rendering:geometricPrecision; image-rendering:optimizeQuality; fill-rule:evenodd; clip-rule:evenodd"
viewBox="0 0 1151.09 304.18"
 xmlns:xlink="http://www.w3.org/1999/xlink">
 <defs>
  <style type="text/css">
   <![CDATA[
    .fil4 {fill:none;fill-rule:nonzero}
    .fil2 {fill:#9900CC}
    .fil1 {fill:white}
    .fil3 {fill:#AC07E3;fill-rule:nonzero}
    .fil5 {fill:white;fill-rule:nonzero}
    .fil0 {fill:white;fill-rule:nonzero}
   ]]>
  </style>
    <clipPath id="id0" style="clip-rule:nonzero">
     <path d="M782.76 246.02l-81.05 0 0 -141.48 34.57 -0.1 0 109.26 55.69 0 -9.22 32.32z"/>
    </clipPath>
      <mask id="id1">
  <linearGradient id="id2" gradientUnits="userSpaceOnUse" x1="841.16" y1="232.33" x2="843.17" y2="-94.78">
   <stop offset="0" style="stop-opacity:0; stop-color:white"/>
   <stop offset="1" style="stop-opacity:1; stop-color:white"/>
  </linearGradient>
       <rect style="fill:url(#id2)" x="519.9" y="10.39" width="754.99" height="172.07"/>
      </mask>
    <clipPath id="id3" style="clip-rule:nonzero">
     <path d="M846.77 249.32c-10.13,0 -19.7,-2.42 -28.71,-7.19 -9.02,-4.8 -16.13,-11.34 -21.46,-19.65 -5.35,-8.41 -8.03,-17.78 -8.03,-28.17 0,-7.76 1.56,-15.02 4.68,-21.73 3.12,-6.74 7.39,-12.53 12.81,-17.47 5.49,-4.97 11.73,-8.82 18.74,-11.48 7.15,-2.65 14.47,-3.98 21.96,-3.98 7.52,0 14.88,1.33 22.03,3.98 6.95,2.52 13.22,6.34 18.78,11.37 5.49,5.08 9.76,10.9 12.81,17.57 3.12,6.71 4.68,13.96 4.68,21.73 0,7.94 -1.52,15.19 -4.58,21.76 -3.05,6.64 -7.35,12.54 -12.91,17.68 -5.63,5.04 -11.9,8.85 -18.78,11.48 -6.95,2.72 -14.31,4.09 -22.03,4.09zm-26.51 -55c0,7.12 2.65,13.25 7.93,18.36 5.22,5.14 11.42,7.7 18.58,7.7 7.22,0 13.42,-2.56 18.68,-7.7 5.29,-5.11 7.93,-11.24 7.93,-18.36 0,-4.63 -1.22,-8.92 -3.66,-12.87 -2.48,-3.92 -5.73,-7.05 -9.83,-9.37 -4.07,-2.32 -8.44,-3.47 -13.12,-3.47 -4.58,0 -8.91,1.16 -13.02,3.47 -4.1,2.32 -7.39,5.45 -9.83,9.37 -2.44,3.95 -3.66,8.24 -3.66,12.87z"/>
    </clipPath>
      <mask id="id4">
  <linearGradient id="id5" gradientUnits="userSpaceOnUse" x1="841.16" y1="232.33" x2="843.17" y2="-94.78">
   <stop offset="0" style="stop-opacity:0; stop-color:white"/>
   <stop offset="1" style="stop-opacity:1; stop-color:white"/>
  </linearGradient>
       <rect style="fill:url(#id5)" x="519.9" y="10.39" width="754.99" height="172.07"/>
      </mask>
    <clipPath id="id6" style="clip-rule:nonzero">
     <path d="M941.21 194.62c0,7.12 2.57,13.21 7.73,18.26 5.26,5.14 11.29,7.7 18.1,7.7 6.88,0 12.95,-2.56 18.17,-7.7 5.15,-5.04 7.73,-11.14 7.73,-18.26 0,-4.53 -1.19,-8.79 -3.56,-12.77 -2.37,-3.98 -5.56,-7.12 -9.52,-9.37 -4.07,-2.28 -8.31,-3.4 -12.81,-3.4 -4.51,0 -8.71,1.12 -12.61,3.4 -4,2.25 -7.19,5.38 -9.66,9.37 -2.37,3.98 -3.56,8.24 -3.56,12.77zm51.25 -50c18.98,8.21 28.47,25.06 28.47,50.61l-0.07 54.08 0 7.39c0,13.08 -4.64,24.28 -13.93,33.61 -4.31,4.33 -10.03,7.73 -17.25,10.29 -6.78,2.38 -13.46,3.58 -20.06,3.58l-5.56 0c-15.12,-0.34 -27.12,-4.97 -36.07,-13.86 -6,-6.2 -9.66,-11.61 -10.91,-16.28l30.3 -17.64c0.3,5.25 2.41,9.71 6.23,13.35 3.83,3.68 8.41,5.48 13.69,5.48 4.17,0 8,-1.19 11.42,-3.58 3.39,-2.32 5.8,-5.31 7.25,-8.99l0.1 -0.37 0.2 -0.51c0.14,-0.48 0.27,-0.92 0.41,-1.39 0.27,-0.82 0.41,-1.6 0.48,-2.38l0 -0.31 0.1 -0.3 0.1 -0.41 0 -0.58 0.1 0 0 -10.49 -0.78 0.41 -0.81 0.31c-6.61,2.72 -13.56,4.09 -20.85,4.09 -9.66,0 -18.71,-2.45 -27.12,-7.29 -8.4,-4.73 -15.15,-11.34 -20.24,-19.85 -5.12,-8.51 -7.66,-18.02 -7.66,-28.44 0,-7.94 1.49,-15.22 4.47,-21.97 2.85,-6.64 6.88,-12.57 12.1,-17.74 5.12,-4.94 10.98,-8.75 17.7,-11.48 6.74,-2.73 13.66,-4.09 20.74,-4.09 12.3,0 21.45,1.6 27.42,4.77z"/>
    </clipPath>
      <mask id="id7">
  <linearGradient id="id8" gradientUnits="userSpaceOnUse" x1="841.16" y1="232.33" x2="843.17" y2="-94.78">
   <stop offset="0" style="stop-opacity:0; stop-color:white"/>
   <stop offset="1" style="stop-opacity:1; stop-color:white"/>
  </linearGradient>
       <rect style="fill:url(#id8)" x="519.9" y="10.39" width="754.99" height="172.07"/>
      </mask>
    <clipPath id="id9" style="clip-rule:nonzero">
     <path d="M1084.11 249.32c-10.14,0 -19.7,-2.42 -28.71,-7.19 -9.02,-4.8 -16.13,-11.34 -21.46,-19.65 -5.35,-8.41 -8.03,-17.78 -8.03,-28.17 0,-7.76 1.56,-15.02 4.68,-21.73 3.12,-6.74 7.39,-12.53 12.81,-17.47 5.49,-4.97 11.72,-8.82 18.74,-11.48 7.15,-2.65 14.47,-3.98 21.96,-3.98 7.52,0 14.88,1.33 22.03,3.98 6.95,2.52 13.22,6.34 18.78,11.37 5.49,5.08 9.76,10.9 12.81,17.57 3.12,6.71 4.68,13.96 4.68,21.73 0,7.94 -1.53,15.19 -4.58,21.76 -3.05,6.64 -7.35,12.54 -12.91,17.68 -5.63,5.04 -11.9,8.85 -18.78,11.48 -6.95,2.72 -14.31,4.09 -22.03,4.09zm-26.51 -55c0,7.12 2.65,13.25 7.93,18.36 5.22,5.14 11.42,7.7 18.58,7.7 7.22,0 13.42,-2.56 18.67,-7.7 5.29,-5.11 7.93,-11.24 7.93,-18.36 0,-4.63 -1.22,-8.92 -3.66,-12.87 -2.48,-3.92 -5.73,-7.05 -9.83,-9.37 -4.07,-2.32 -8.44,-3.47 -13.12,-3.47 -4.58,0 -8.91,1.16 -13.02,3.47 -4.1,2.32 -7.39,5.45 -9.83,9.37 -2.44,3.95 -3.66,8.24 -3.66,12.87z"/>
    </clipPath>
      <mask id="id10">
  <linearGradient id="id11" gradientUnits="userSpaceOnUse" x1="841.16" y1="232.33" x2="843.17" y2="-94.78">
   <stop offset="0" style="stop-opacity:0; stop-color:white"/>
   <stop offset="1" style="stop-opacity:1; stop-color:white"/>
  </linearGradient>
       <rect style="fill:url(#id11)" x="519.9" y="10.39" width="754.99" height="172.07"/>
      </mask>
    <clipPath id="id12" style="clip-rule:nonzero">
     <path d="M1024.06 298.26l0 -6.34 6.31 0 0 6.34 -6.31 0zm37.35 -12.04l5.43 0.76c-0.6,3.75 -2.11,6.68 -4.56,8.8 -2.45,2.12 -5.47,3.18 -9.04,3.18 -4.47,0 -8.07,-1.47 -10.78,-4.41 -2.72,-2.94 -4.08,-7.14 -4.08,-12.62 0,-3.55 0.59,-6.65 1.76,-9.31 1.17,-2.65 2.94,-4.65 5.34,-5.97 2.39,-1.33 4.98,-2 7.8,-2 3.55,0 6.46,0.9 8.71,2.7 2.26,1.81 3.71,4.38 4.34,7.69l-5.37 0.83c-0.51,-2.21 -1.42,-3.87 -2.73,-4.99 -1.3,-1.11 -2.88,-1.67 -4.73,-1.67 -2.8,0 -5.07,1 -6.82,3.01 -1.75,2.02 -2.62,5.19 -2.62,9.54 0,4.42 0.84,7.62 2.52,9.62 1.69,2 3.89,3 6.6,3 2.19,0 4.01,-0.67 5.46,-2.01 1.46,-1.33 2.39,-3.39 2.78,-6.17zm8.08 -4.41c0,-6.08 1.68,-10.58 5.06,-13.51 2.81,-2.43 6.25,-3.64 10.3,-3.64 4.49,0 8.17,1.48 11.03,4.44 2.85,2.95 4.28,7.04 4.28,12.25 0,4.23 -0.63,7.55 -1.89,9.97 -1.26,2.42 -3.1,4.3 -5.52,5.64 -2.41,1.34 -5.05,2.01 -7.9,2.01 -4.58,0 -8.29,-1.47 -11.12,-4.41 -2.83,-2.95 -4.24,-7.2 -4.24,-12.73zm5.68 0.01c0,4.21 0.91,7.36 2.75,9.44 1.84,2.09 4.14,3.14 6.93,3.14 2.75,0 5.05,-1.05 6.89,-3.15 1.83,-2.11 2.75,-5.3 2.75,-9.61 0,-4.06 -0.93,-7.13 -2.77,-9.22 -1.84,-2.09 -4.13,-3.14 -6.87,-3.14 -2.79,0 -5.09,1.04 -6.93,3.12 -1.83,2.08 -2.75,5.22 -2.75,9.41zm31.5 16.44l0 -32.91 4.98 0 0 4.65c1.02,-1.61 2.39,-2.91 4.09,-3.88 1.71,-0.98 3.64,-1.47 5.81,-1.47 2.42,0 4.41,0.51 5.96,1.51 1.55,1.02 2.64,2.42 3.27,4.24 2.61,-3.83 5.98,-5.75 10.15,-5.75 3.26,0 5.77,0.9 7.52,2.7 1.76,1.81 2.64,4.58 2.64,8.34l0 22.56 -5.55 0 0 -20.71c0,-2.22 -0.19,-3.82 -0.55,-4.81 -0.36,-0.99 -1.01,-1.77 -1.97,-2.37 -0.94,-0.6 -2.06,-0.9 -3.33,-0.9 -2.32,0 -4.23,0.77 -5.75,2.3 -1.52,1.54 -2.28,4.01 -2.28,7.39l0 19.09 -5.55 0 0 -21.36c0,-2.47 -0.45,-4.33 -1.36,-5.57 -0.9,-1.24 -2.39,-1.86 -4.44,-1.86 -1.56,0 -3,0.41 -4.32,1.24 -1.33,0.82 -2.28,2.03 -2.88,3.63 -0.59,1.58 -0.88,3.88 -0.88,6.87l0 17.06 -5.55 0z"/>
    </clipPath>
      <mask id="id13">
  <linearGradient id="id14" gradientUnits="userSpaceOnUse" x1="841.16" y1="232.33" x2="843.17" y2="-94.78">
   <stop offset="0" style="stop-opacity:0; stop-color:white"/>
   <stop offset="1" style="stop-opacity:1; stop-color:white"/>
  </linearGradient>
       <rect style="fill:url(#id14)" x="519.9" y="10.39" width="754.99" height="172.07"/>
      </mask>
 </defs>
 <g id="Camada_x0020_1">
  <metadata id="CorelCorpID_0Corel-Layer"/>
  <g id="_4949738720">
   <polygon class="fil0" points="363.05,104.55 331.66,104.55 399.89,249.69 468.09,104.55 437,104.55 399.89,178.58 "/>
   <polygon class="fil0" points="505.95,143.95 505.95,246.22 474.26,246.22 474.26,144.05 "/>
   <path class="fil0" d="M527.1 213.9c6.27,6.29 13.96,9.47 23.02,9.47 9.49,0 14.2,-2.79 14.2,-8.38 0,-2.93 -2.61,-5.11 -7.83,-6.5 -3.73,-0.85 -9.6,-2.35 -17.7,-4.46 -6.54,-1.74 -12.07,-4.94 -16.57,-9.6 -4.44,-4.57 -6.64,-11.61 -6.64,-21.15 0,-7.32 1.83,-13.49 5.46,-18.56 3.69,-5.04 8.51,-8.79 14.41,-11.17 6,-2.45 12.61,-3.67 19.76,-3.67 4.04,0 8.14,0.54 12.3,1.7 4.51,1.4 8.54,3.1 12.1,5.18 3.93,2.18 7.36,4.66 10.34,7.39l-17.46 17.44c-5.12,-3.85 -10.67,-5.76 -16.71,-5.76 -7.22,0 -10.81,2.01 -10.81,6.07 0,3.67 2.68,6.23 8.03,7.69 5.9,1.6 11.83,3.1 17.79,4.5 6.55,1.63 12,4.7 16.37,9.16 4.44,4.52 6.64,11.64 6.64,21.35 0,7.25 -1.9,13.52 -5.76,18.77 -3.83,5.31 -8.95,9.26 -15.39,11.88 -6.4,2.73 -13.05,4.09 -19.96,4.09 -5.73,0 -10.95,-0.48 -15.56,-1.4 -4.64,-0.88 -8.98,-2.35 -13.02,-4.39 -4.17,-2.08 -8.54,-4.83 -13.12,-8.27l16.1 -21.35z"/>
   <path class="fil0" d="M642.69 220.16c-8.07,-0.27 -12.1,-5.89 -12.1,-16.85l0 -59.46 -31.79 0 0 59.46c0,28.95 14.65,44.2 43.89,45.8l1.8 0c29.25,-1.6 43.89,-16.85 43.89,-45.8l0 -59.46 -31.79 0 0 59.46c0,10.97 -4.04,16.59 -12.1,16.85l-1.8 0z"/>
   <path class="fil1" d="M188.84 281.75c-75.73,21.12 -154.21,-13.51 -180.29,-82.2 -15.83,-41.66 -8.96,-86.88 14.63,-123.82l165.66 206.01z"/>
   <path class="fil1" d="M205.99 5.65c42.07,11.76 77.17,40.89 93,82.55 26.08,68.67 -9.46,147.01 -79.92,181.95l-13.08 -264.5z"/>
   <path class="fil2" d="M103.34 11.08c17.52,-6.71 35.38,-10.32 52.9,-11.08l4.88 163.16 -104.26 -125.19c13.5,-11.04 29.1,-20.22 46.47,-26.88z"/>
   <polygon class="fil3" points="782.76,246.02 701.71,246.02 701.71,104.54 736.29,104.44 736.29,213.69 791.98,213.69 "/>
   <g style="clip-path:url(#id0)">
    <g>
     <path id="1" class="fil1" style="mask:url(#id1)" d="M897.39 14.2c206.38,0 373.69,36.82 373.69,82.23 0,45.41 -167.31,82.23 -373.69,82.23 -206.38,0 -373.69,-36.81 -373.69,-82.23 0,-45.41 167.31,-82.23 373.69,-82.23z"/>
    </g>
   </g>
   <polygon class="fil4" points="782.76,246.02 701.71,246.02 701.71,104.54 736.29,104.44 736.29,213.69 791.98,213.69 "/>
   <path class="fil3" d="M846.77 249.32c-10.13,0 -19.7,-2.42 -28.71,-7.19 -9.02,-4.8 -16.13,-11.34 -21.46,-19.65 -5.35,-8.41 -8.03,-17.78 -8.03,-28.17 0,-7.76 1.56,-15.02 4.68,-21.73 3.12,-6.74 7.39,-12.53 12.81,-17.47 5.49,-4.97 11.73,-8.82 18.74,-11.48 7.15,-2.65 14.47,-3.98 21.96,-3.98 7.52,0 14.88,1.33 22.03,3.98 6.95,2.52 13.22,6.34 18.78,11.37 5.49,5.08 9.76,10.9 12.81,17.57 3.12,6.71 4.68,13.96 4.68,21.73 0,7.94 -1.52,15.19 -4.58,21.76 -3.05,6.64 -7.35,12.54 -12.91,17.68 -5.63,5.04 -11.9,8.85 -18.78,11.48 -6.95,2.72 -14.31,4.09 -22.03,4.09zm-26.51 -55c0,7.12 2.65,13.25 7.93,18.36 5.22,5.14 11.42,7.7 18.58,7.7 7.22,0 13.42,-2.56 18.68,-7.7 5.29,-5.11 7.93,-11.24 7.93,-18.36 0,-4.63 -1.22,-8.92 -3.66,-12.87 -2.48,-3.92 -5.73,-7.05 -9.83,-9.37 -4.07,-2.32 -8.44,-3.47 -13.12,-3.47 -4.58,0 -8.91,1.16 -13.02,3.47 -4.1,2.32 -7.39,5.45 -9.83,9.37 -2.44,3.95 -3.66,8.24 -3.66,12.87z"/>
   <g style="clip-path:url(#id3)">
    <g>
     <path id="1" class="fil1" style="mask:url(#id4)" d="M897.39 14.2c206.38,0 373.69,36.82 373.69,82.23 0,45.41 -167.31,82.23 -373.69,82.23 -206.38,0 -373.69,-36.81 -373.69,-82.23 0,-45.41 167.31,-82.23 373.69,-82.23z"/>
    </g>
   </g>
   <path class="fil4" d="M846.77 249.32c-10.13,0 -19.7,-2.42 -28.71,-7.19 -9.02,-4.8 -16.13,-11.34 -21.46,-19.65 -5.35,-8.41 -8.03,-17.78 -8.03,-28.17 0,-7.76 1.56,-15.02 4.68,-21.73 3.12,-6.74 7.39,-12.53 12.81,-17.47 5.49,-4.97 11.73,-8.82 18.74,-11.48 7.15,-2.65 14.47,-3.98 21.96,-3.98 7.52,0 14.88,1.33 22.03,3.98 6.95,2.52 13.22,6.34 18.78,11.37 5.49,5.08 9.76,10.9 12.81,17.57 3.12,6.71 4.68,13.96 4.68,21.73 0,7.94 -1.52,15.19 -4.58,21.76 -3.05,6.64 -7.35,12.54 -12.91,17.68 -5.63,5.04 -11.9,8.85 -18.78,11.48 -6.95,2.72 -14.31,4.09 -22.03,4.09zm-26.51 -55c0,7.12 2.65,13.25 7.93,18.36 5.22,5.14 11.42,7.7 18.58,7.7 7.22,0 13.42,-2.56 18.68,-7.7 5.29,-5.11 7.93,-11.24 7.93,-18.36 0,-4.63 -1.22,-8.92 -3.66,-12.87 -2.48,-3.92 -5.73,-7.05 -9.83,-9.37 -4.07,-2.32 -8.44,-3.47 -13.12,-3.47 -4.58,0 -8.91,1.16 -13.02,3.47 -4.1,2.32 -7.39,5.45 -9.83,9.37 -2.44,3.95 -3.66,8.24 -3.66,12.87z"/>
   <path class="fil3" d="M941.21 194.62c0,7.12 2.57,13.21 7.73,18.26 5.26,5.14 11.29,7.7 18.1,7.7 6.88,0 12.95,-2.56 18.17,-7.7 5.15,-5.04 7.73,-11.14 7.73,-18.26 0,-4.53 -1.19,-8.79 -3.56,-12.77 -2.37,-3.98 -5.56,-7.12 -9.52,-9.37 -4.07,-2.28 -8.31,-3.4 -12.81,-3.4 -4.51,0 -8.71,1.12 -12.61,3.4 -4,2.25 -7.19,5.38 -9.66,9.37 -2.37,3.98 -3.56,8.24 -3.56,12.77zm51.25 -50c18.98,8.21 28.47,25.06 28.47,50.61l-0.07 54.08 0 7.39c0,13.08 -4.64,24.28 -13.93,33.61 -4.31,4.33 -10.03,7.73 -17.25,10.29 -6.78,2.38 -13.46,3.58 -20.06,3.58l-5.56 0c-15.12,-0.34 -27.12,-4.97 -36.07,-13.86 -6,-6.2 -9.66,-11.61 -10.91,-16.28l30.3 -17.64c0.3,5.25 2.41,9.71 6.23,13.35 3.83,3.68 8.41,5.48 13.69,5.48 4.17,0 8,-1.19 11.42,-3.58 3.39,-2.32 5.8,-5.31 7.25,-8.99l0.1 -0.37 0.2 -0.51c0.14,-0.48 0.27,-0.92 0.41,-1.39 0.27,-0.82 0.41,-1.6 0.48,-2.38l0 -0.31 0.1 -0.3 0.1 -0.41 0 -0.58 0.1 0 0 -10.49 -0.78 0.41 -0.81 0.31c-6.61,2.72 -13.56,4.09 -20.85,4.09 -9.66,0 -18.71,-2.45 -27.12,-7.29 -8.4,-4.73 -15.15,-11.34 -20.24,-19.85 -5.12,-8.51 -7.66,-18.02 -7.66,-28.44 0,-7.94 1.49,-15.22 4.47,-21.97 2.85,-6.64 6.88,-12.57 12.1,-17.74 5.12,-4.94 10.98,-8.75 17.7,-11.48 6.74,-2.73 13.66,-4.09 20.74,-4.09 12.3,0 21.45,1.6 27.42,4.77z"/>
   <g style="clip-path:url(#id6)">
    <g>
     <path id="1" class="fil1" style="mask:url(#id7)" d="M897.39 14.2c206.38,0 373.69,36.82 373.69,82.23 0,45.41 -167.31,82.23 -373.69,82.23 -206.38,0 -373.69,-36.81 -373.69,-82.23 0,-45.41 167.31,-82.23 373.69,-82.23z"/>
    </g>
   </g>
   <path class="fil4" d="M941.21 194.62c0,7.12 2.57,13.21 7.73,18.26 5.26,5.14 11.29,7.7 18.1,7.7 6.88,0 12.95,-2.56 18.17,-7.7 5.15,-5.04 7.73,-11.14 7.73,-18.26 0,-4.53 -1.19,-8.79 -3.56,-12.77 -2.37,-3.98 -5.56,-7.12 -9.52,-9.37 -4.07,-2.28 -8.31,-3.4 -12.81,-3.4 -4.51,0 -8.71,1.12 -12.61,3.4 -4,2.25 -7.19,5.38 -9.66,9.37 -2.37,3.98 -3.56,8.24 -3.56,12.77zm51.25 -50c18.98,8.21 28.47,25.06 28.47,50.61l-0.07 54.08 0 7.39c0,13.08 -4.64,24.28 -13.93,33.61 -4.31,4.33 -10.03,7.73 -17.25,10.29 -6.78,2.38 -13.46,3.58 -20.06,3.58l-5.56 0c-15.12,-0.34 -27.12,-4.97 -36.07,-13.86 -6,-6.2 -9.66,-11.61 -10.91,-16.28l30.3 -17.64c0.3,5.25 2.41,9.71 6.23,13.35 3.83,3.68 8.41,5.48 13.69,5.48 4.17,0 8,-1.19 11.42,-3.58 3.39,-2.32 5.8,-5.31 7.25,-8.99l0.1 -0.37 0.2 -0.51c0.14,-0.48 0.27,-0.92 0.41,-1.39 0.27,-0.82 0.41,-1.6 0.48,-2.38l0 -0.31 0.1 -0.3 0.1 -0.41 0 -0.58 0.1 0 0 -10.49 -0.78 0.41 -0.81 0.31c-6.61,2.72 -13.56,4.09 -20.85,4.09 -9.66,0 -18.71,-2.45 -27.12,-7.29 -8.4,-4.73 -15.15,-11.34 -20.24,-19.85 -5.12,-8.51 -7.66,-18.02 -7.66,-28.44 0,-7.94 1.49,-15.22 4.47,-21.97 2.85,-6.64 6.88,-12.57 12.1,-17.74 5.12,-4.94 10.98,-8.75 17.7,-11.48 6.74,-2.73 13.66,-4.09 20.74,-4.09 12.3,0 21.45,1.6 27.42,4.77z"/>
   <path class="fil3" d="M1084.11 249.32c-10.14,0 -19.7,-2.42 -28.71,-7.19 -9.02,-4.8 -16.13,-11.34 -21.46,-19.65 -5.35,-8.41 -8.03,-17.78 -8.03,-28.17 0,-7.76 1.56,-15.02 4.68,-21.73 3.12,-6.74 7.39,-12.53 12.81,-17.47 5.49,-4.97 11.72,-8.82 18.74,-11.48 7.15,-2.65 14.47,-3.98 21.96,-3.98 7.52,0 14.88,1.33 22.03,3.98 6.95,2.52 13.22,6.34 18.78,11.37 5.49,5.08 9.76,10.9 12.81,17.57 3.12,6.71 4.68,13.96 4.68,21.73 0,7.94 -1.53,15.19 -4.58,21.76 -3.05,6.64 -7.35,12.54 -12.91,17.68 -5.63,5.04 -11.9,8.85 -18.78,11.48 -6.95,2.72 -14.31,4.09 -22.03,4.09zm-26.51 -55c0,7.12 2.65,13.25 7.93,18.36 5.22,5.14 11.42,7.7 18.58,7.7 7.22,0 13.42,-2.56 18.67,-7.7 5.29,-5.11 7.93,-11.24 7.93,-18.36 0,-4.63 -1.22,-8.92 -3.66,-12.87 -2.48,-3.92 -5.73,-7.05 -9.83,-9.37 -4.07,-2.32 -8.44,-3.47 -13.12,-3.47 -4.58,0 -8.91,1.16 -13.02,3.47 -4.1,2.32 -7.39,5.45 -9.83,9.37 -2.44,3.95 -3.66,8.24 -3.66,12.87z"/>
   <g style="clip-path:url(#id9)">
    <g>
     <path id="1" class="fil1" style="mask:url(#id10)" d="M897.39 14.2c206.38,0 373.69,36.82 373.69,82.23 0,45.41 -167.31,82.23 -373.69,82.23 -206.38,0 -373.69,-36.81 -373.69,-82.23 0,-45.41 167.31,-82.23 373.69,-82.23z"/>
    </g>
   </g>
   <path class="fil4" d="M1084.11 249.32c-10.14,0 -19.7,-2.42 -28.71,-7.19 -9.02,-4.8 -16.13,-11.34 -21.46,-19.65 -5.35,-8.41 -8.03,-17.78 -8.03,-28.17 0,-7.76 1.56,-15.02 4.68,-21.73 3.12,-6.74 7.39,-12.53 12.81,-17.47 5.49,-4.97 11.72,-8.82 18.74,-11.48 7.15,-2.65 14.47,-3.98 21.96,-3.98 7.52,0 14.88,1.33 22.03,3.98 6.95,2.52 13.22,6.34 18.78,11.37 5.49,5.08 9.76,10.9 12.81,17.57 3.12,6.71 4.68,13.96 4.68,21.73 0,7.94 -1.53,15.19 -4.58,21.76 -3.05,6.64 -7.35,12.54 -12.91,17.68 -5.63,5.04 -11.9,8.85 -18.78,11.48 -6.95,2.72 -14.31,4.09 -22.03,4.09zm-26.51 -55c0,7.12 2.65,13.25 7.93,18.36 5.22,5.14 11.42,7.7 18.58,7.7 7.22,0 13.42,-2.56 18.67,-7.7 5.29,-5.11 7.93,-11.24 7.93,-18.36 0,-4.63 -1.22,-8.92 -3.66,-12.87 -2.48,-3.92 -5.73,-7.05 -9.83,-9.37 -4.07,-2.32 -8.44,-3.47 -13.12,-3.47 -4.58,0 -8.91,1.16 -13.02,3.47 -4.1,2.32 -7.39,5.45 -9.83,9.37 -2.44,3.95 -3.66,8.24 -3.66,12.87z"/>
   <path class="fil5" d="M1024.06 298.26l0 -6.34 6.31 0 0 6.34 -6.31 0zm37.35 -12.04l5.43 0.76c-0.6,3.75 -2.11,6.68 -4.56,8.8 -2.45,2.12 -5.47,3.18 -9.04,3.18 -4.47,0 -8.07,-1.47 -10.78,-4.41 -2.72,-2.94 -4.08,-7.14 -4.08,-12.62 0,-3.55 0.59,-6.65 1.76,-9.31 1.17,-2.65 2.94,-4.65 5.34,-5.97 2.39,-1.33 4.98,-2 7.8,-2 3.55,0 6.46,0.9 8.71,2.7 2.26,1.81 3.71,4.38 4.34,7.69l-5.37 0.83c-0.51,-2.21 -1.42,-3.87 -2.73,-4.99 -1.3,-1.11 -2.88,-1.67 -4.73,-1.67 -2.8,0 -5.07,1 -6.82,3.01 -1.75,2.02 -2.62,5.19 -2.62,9.54 0,4.42 0.84,7.62 2.52,9.62 1.69,2 3.89,3 6.6,3 2.19,0 4.01,-0.67 5.46,-2.01 1.46,-1.33 2.39,-3.39 2.78,-6.17zm8.08 -4.41c0,-6.08 1.68,-10.58 5.06,-13.51 2.81,-2.43 6.25,-3.64 10.3,-3.64 4.49,0 8.17,1.48 11.03,4.44 2.85,2.95 4.28,7.04 4.28,12.25 0,4.23 -0.63,7.55 -1.89,9.97 -1.26,2.42 -3.1,4.3 -5.52,5.64 -2.41,1.34 -5.05,2.01 -7.9,2.01 -4.58,0 -8.29,-1.47 -11.12,-4.41 -2.83,-2.95 -4.24,-7.2 -4.24,-12.73zm5.68 0.01c0,4.21 0.91,7.36 2.75,9.44 1.84,2.09 4.14,3.14 6.93,3.14 2.75,0 5.05,-1.05 6.89,-3.15 1.83,-2.11 2.75,-5.3 2.75,-9.61 0,-4.06 -0.93,-7.13 -2.77,-9.22 -1.84,-2.09 -4.13,-3.14 -6.87,-3.14 -2.79,0 -5.09,1.04 -6.93,3.12 -1.83,2.08 -2.75,5.22 -2.75,9.41zm31.5 16.44l0 -32.91 4.98 0 0 4.65c1.02,-1.61 2.39,-2.91 4.09,-3.88 1.71,-0.98 3.64,-1.47 5.81,-1.47 2.42,0 4.41,0.51 5.96,1.51 1.55,1.02 2.64,2.42 3.27,4.24 2.61,-3.83 5.98,-5.75 10.15,-5.75 3.26,0 5.77,0.9 7.52,2.7 1.76,1.81 2.64,4.58 2.64,8.34l0 22.56 -5.55 0 0 -20.71c0,-2.22 -0.19,-3.82 -0.55,-4.81 -0.36,-0.99 -1.01,-1.77 -1.97,-2.37 -0.94,-0.6 -2.06,-0.9 -3.33,-0.9 -2.32,0 -4.23,0.77 -5.75,2.3 -1.52,1.54 -2.28,4.01 -2.28,7.39l0 19.09 -5.55 0 0 -21.36c0,-2.47 -0.45,-4.33 -1.36,-5.57 -0.9,-1.24 -2.39,-1.86 -4.44,-1.86 -1.56,0 -3,0.41 -4.32,1.24 -1.33,0.82 -2.28,2.03 -2.88,3.63 -0.59,1.58 -0.88,3.88 -0.88,6.87l0 17.06 -5.55 0z"/>
   <g style="clip-path:url(#id12)">
    <g>
     <path id="1" class="fil1" style="mask:url(#id13)" d="M897.39 14.2c206.38,0 373.69,36.82 373.69,82.23 0,45.41 -167.31,82.23 -373.69,82.23 -206.38,0 -373.69,-36.81 -373.69,-82.23 0,-45.41 167.31,-82.23 373.69,-82.23z"/>
    </g>
   </g>
   <path class="fil4" d="M1024.06 298.26l0 -6.34 6.31 0 0 6.34 -6.31 0zm37.35 -12.04l5.43 0.76c-0.6,3.75 -2.11,6.68 -4.56,8.8 -2.45,2.12 -5.47,3.18 -9.04,3.18 -4.47,0 -8.07,-1.47 -10.78,-4.41 -2.72,-2.94 -4.08,-7.14 -4.08,-12.62 0,-3.55 0.59,-6.65 1.76,-9.31 1.17,-2.65 2.94,-4.65 5.34,-5.97 2.39,-1.33 4.98,-2 7.8,-2 3.55,0 6.46,0.9 8.71,2.7 2.26,1.81 3.71,4.38 4.34,7.69l-5.37 0.83c-0.51,-2.21 -1.42,-3.87 -2.73,-4.99 -1.3,-1.11 -2.88,-1.67 -4.73,-1.67 -2.8,0 -5.07,1 -6.82,3.01 -1.75,2.02 -2.62,5.19 -2.62,9.54 0,4.42 0.84,7.62 2.52,9.62 1.69,2 3.89,3 6.6,3 2.19,0 4.01,-0.67 5.46,-2.01 1.46,-1.33 2.39,-3.39 2.78,-6.17zm8.08 -4.41c0,-6.08 1.68,-10.58 5.06,-13.51 2.81,-2.43 6.25,-3.64 10.3,-3.64 4.49,0 8.17,1.48 11.03,4.44 2.85,2.95 4.28,7.04 4.28,12.25 0,4.23 -0.63,7.55 -1.89,9.97 -1.26,2.42 -3.1,4.3 -5.52,5.64 -2.41,1.34 -5.05,2.01 -7.9,2.01 -4.58,0 -8.29,-1.47 -11.12,-4.41 -2.83,-2.95 -4.24,-7.2 -4.24,-12.73zm5.68 0.01c0,4.21 0.91,7.36 2.75,9.44 1.84,2.09 4.14,3.14 6.93,3.14 2.75,0 5.05,-1.05 6.89,-3.15 1.83,-2.11 2.75,-5.3 2.75,-9.61 0,-4.06 -0.93,-7.13 -2.77,-9.22 -1.84,-2.09 -4.13,-3.14 -6.87,-3.14 -2.79,0 -5.09,1.04 -6.93,3.12 -1.83,2.08 -2.75,5.22 -2.75,9.41zm31.5 16.44l0 -32.91 4.98 0 0 4.65c1.02,-1.61 2.39,-2.91 4.09,-3.88 1.71,-0.98 3.64,-1.47 5.81,-1.47 2.42,0 4.41,0.51 5.96,1.51 1.55,1.02 2.64,2.42 3.27,4.24 2.61,-3.83 5.98,-5.75 10.15,-5.75 3.26,0 5.77,0.9 7.52,2.7 1.76,1.81 2.64,4.58 2.64,8.34l0 22.56 -5.55 0 0 -20.71c0,-2.22 -0.19,-3.82 -0.55,-4.81 -0.36,-0.99 -1.01,-1.77 -1.97,-2.37 -0.94,-0.6 -2.06,-0.9 -3.33,-0.9 -2.32,0 -4.23,0.77 -5.75,2.3 -1.52,1.54 -2.28,4.01 -2.28,7.39l0 19.09 -5.55 0 0 -21.36c0,-2.47 -0.45,-4.33 -1.36,-5.57 -0.9,-1.24 -2.39,-1.86 -4.44,-1.86 -1.56,0 -3,0.41 -4.32,1.24 -1.33,0.82 -2.28,2.03 -2.88,3.63 -0.59,1.58 -0.88,3.88 -0.88,6.87l0 17.06 -5.55 0z"/>
   <path class="fil1" d="M484.82 95.09c-11.37,2.58 -12.03,7.13 -9.8,17.07 2.24,9.97 14.1,9.38 21.83,11 6.2,1.29 17.22,8.83 19.52,16.16l-1.99 -16.01c-1.97,-6.26 -3.41,-10.81 -6.26,-15.13 -3.85,-5.82 -14.78,-15.03 -23.3,-13.1z"/>
   <polygon class="fil1" points="625.22,76.82 626.08,77.52 626.17,75.93 "/>
  </g>
 </g>
</svg>
