<?xml version="1.0" encoding="UTF-8"?>
<!DOCTYPE svg PUBLIC "-//W3C//DTD SVG 1.1//EN" "http://www.w3.org/Graphics/SVG/1.1/DTD/svg11.dtd">
<!-- Creator: CorelDRAW 2019 (64 Bit) -->
<svg xmlns="http://www.w3.org/2000/svg" xml:space="preserve" width="16.9332mm" height="16.9332mm" version="1.1" style="shape-rendering:geometricPrecision; text-rendering:geometricPrecision; image-rendering:optimizeQuality; fill-rule:evenodd; clip-rule:evenodd"
viewBox="0 0 885.58 885.58"
 xmlns:xlink="http://www.w3.org/1999/xlink">
 <defs>
  <style type="text/css">
   <![CDATA[
    .fil1 {fill:#32BA46}
    .fil2 {fill:#E0E0E0}
    .fil0 {fill:white}
   ]]>
  </style>
 </defs>
 <g id="Camada_x0020_1">
  <metadata id="CorelCorpID_0Corel-Layer"/>
  <g id="_6309954032">
   <path class="fil0" d="M240.26 50.28c-1.12,1.26 -20.35,12.05 -23.66,14.04 -19.54,11.71 -36.19,24.48 -53.39,38.61 -8.41,6.91 -12.15,10.93 -19.34,17.36 -15.23,13.63 -30.64,31.81 -43.55,47.94 -5.16,6.44 -10.68,13.91 -15.54,21.14 -43.82,65.25 -70.21,136.27 -75.26,218.64 -5.57,90.86 17.62,170.62 54.48,237.61 3.92,7.12 2.8,5.3 0.52,13.74l-11.87 43.3c-5.33,19.16 -10.55,38.3 -15.83,57.49l-23.72 86.21c-1.36,4.97 -2.69,9.71 -4.01,14.57 -1.24,4.6 -3.02,9.81 -3.84,14.41l204.56 -53.3c4.25,-1.13 8.54,-2.21 12.82,-3.33 15.68,-4.12 10.52,-5.08 23.65,1.8 15.42,8.07 39.9,18.13 56.45,23.87 137.99,47.82 292.4,21.18 404.13,-63.99 5.83,-4.45 22.03,-17.11 26.68,-21.77l8.46 -7.68c3.05,-2.66 5.27,-5.1 8.19,-7.95 2.65,-2.58 5.42,-5.81 8.1,-8.06 4.01,-3.36 11.29,-12.3 15.21,-16.59 18.83,-20.55 39.51,-51.07 53.11,-75.5 53.37,-95.88 67.79,-210.63 39.95,-318.31 -4.38,-16.94 -9.72,-33.06 -15.83,-48.67 -11.4,-29.12 -27.1,-58.78 -44.41,-84.18 -6.58,-9.66 -19.75,-27.62 -27.64,-36.44 -8.58,-9.58 -13.74,-15.67 -23.08,-25.35 -27.28,-28.28 -65.96,-57.26 -100.52,-76.15 -3.14,-1.72 -19.53,-9.59 -21.06,-11.26 -1.95,-2.5 -36.83,-15.89 -42.48,-17.76 -39.67,-13.15 -69.56,-20.32 -112.99,-23.71 -4.5,-0.35 -10.19,-0.05 -14.55,-0.65 -1.07,-0.15 -2.32,-0.26 -3.72,-0.35l-26.78 0c-5.63,0.16 -10.89,0.36 -14.77,0.47l-14.13 1.07c-11.69,1.22 -28.49,3.25 -40,5.58 -37.46,7.59 -58.42,13.52 -93.73,28.24 -9.52,3.97 -16.97,7.65 -26.03,12.16l-3.9 1.96c-1.1,0.82 -0.42,0.01 -0.69,0.81z"/>
   <path class="fil1" d="M665.68 550.94c-0.12,11.4 -4.6,31.36 -8.85,40.49 -5,10.74 -15.08,20.08 -23.27,26.15 -20.19,14.98 -41.42,25.54 -74.56,24.58 -40.79,-1.18 -114.38,-30.09 -148.09,-49.98 -29,-17.12 -37.83,-26.33 -60.26,-44.98 -7.65,-6.36 -33.42,-32.86 -39.61,-40.64l-11.44 -13.51c-11.91,-14.33 -25.54,-33.85 -36.52,-49.56 -10.71,-15.32 -18.93,-29.59 -26.6,-47.25l-6.59 -17.43c-1.9,-10.36 -4.33,-13.19 -6.03,-28.57 -3.17,-28.8 4.06,-59.34 19.42,-81.69 5.07,-7.37 17.19,-21.91 24.25,-27.13 13.07,-9.66 25.9,-8.35 42.86,-7.7 12.57,0.49 17.54,4.65 22.17,12.71 5,8.71 16.13,36.74 20.68,47.75 3.38,8.23 6.55,16.12 9.9,24.3 2.46,6 9.2,19.39 9.01,25.68 -0.21,6.84 -7.67,19.27 -10.86,23.35l-15.62 18.62c-4.57,4.3 -13.58,11.71 -8.85,22.52 4.84,11.11 27.52,41.09 35.59,50.49l20.57 22c13.91,12.42 27.79,24.11 43.95,33.89 7.18,4.36 13.82,8.25 21.82,12.43 7.62,3.99 15.46,7.11 23.5,10.79 9.47,4.34 16.86,8.82 25.76,1.22 1.69,-1.45 2.35,-2.76 3.94,-4.39l27.23 -32.93c12.17,-16.37 12.33,-21.91 44.4,-6.22l69.35 33.49c11.32,5.53 12.81,6.57 12.75,21.53zm-579.03 -172.29c-9.12,54.21 -3.66,112.81 12.71,164.86 9.15,29.11 23.88,60.05 39.96,84.72 8.68,13.34 7.58,9.53 4.08,21.77 -9.18,32.15 -17.89,65.27 -26.9,97.73 -2.06,7.36 -5.35,17.26 -6.64,24.6 11.16,-2.2 37.62,-9.78 50.56,-13.09l75.78 -19.81c13.93,-3.8 8.8,-3.74 22.24,4.06 13.32,7.74 26.84,14.94 42.1,21.55 65.11,28.14 141.43,37.71 217.6,22.23 17.22,-3.52 33.92,-8.33 49.66,-14 45.27,-16.28 83.71,-40.34 119.43,-71.51l11.94 -11.54c5.67,-5.47 14.93,-14.96 19.49,-20.64 11.82,-14.68 15.57,-18.12 27.58,-35.98 8.25,-12.26 16.25,-25.87 23.35,-40.24 2.93,-5.93 18.44,-39.96 18.25,-45.03 1.41,-1.57 2.61,-6.73 3.24,-8.77 0.97,-3.14 1.78,-5.88 2.7,-9.07 1.8,-6.17 3.44,-12.78 4.74,-19.16 9.22,-45.03 11.12,-84.36 4.5,-130.39 -7.69,-53.49 -27.25,-100.17 -51.27,-138.37 -43.17,-68.65 -118.35,-134.21 -220.84,-158.95 -116.27,-28.08 -224.31,4.08 -299.97,59.39 -16.7,12.19 -24,18.85 -38.52,32.42 -4.31,4.03 -7.41,7.74 -11.98,12l-11.07 12.43c-12.1,14.96 -18.86,22.07 -30.51,40.9 -12,19.39 -22.91,39.21 -32.03,62.83 -8.02,20.81 -17.57,50.81 -20.19,75.05z"/>
   <path class="fil0" d="M229.88 378.83l6.59 17.43c7.68,17.67 15.89,31.92 26.61,47.25 10.98,15.71 24.6,35.24 36.52,49.56l11.44 13.51c6.19,7.78 31.94,34.27 39.61,40.64 22.44,18.64 31.25,27.85 60.26,44.97 33.72,19.89 107.3,48.79 148.1,49.98 33.14,0.96 54.36,-9.61 74.55,-24.58 8.19,-6.07 18.27,-15.41 23.27,-26.15 4.25,-9.14 8.74,-29.09 8.86,-40.49 0.07,-14.95 -1.44,-16 -12.75,-21.53l-69.34 -33.5c-32.09,-15.69 -32.24,-10.14 -44.42,6.22l-27.23 32.94c-1.58,1.63 -2.24,2.94 -3.93,4.38 -8.9,7.6 -16.3,3.14 -25.77,-1.21 -8.03,-3.68 -15.88,-6.81 -23.49,-10.79 -8,-4.19 -14.64,-8.06 -21.84,-12.43 -16.14,-9.78 -30.03,-21.49 -43.94,-33.89l-20.56 -22.01c-8.07,-9.39 -30.75,-39.38 -35.59,-50.48 -4.72,-10.81 4.28,-18.22 8.84,-22.51l15.63 -18.61c3.18,-4.08 10.65,-16.51 10.86,-23.35 0.19,-6.29 -6.56,-19.67 -9.02,-25.67 -3.36,-8.17 -6.52,-16.08 -9.91,-24.3 -4.54,-11 -15.67,-39.04 -20.68,-47.75 -4.62,-8.05 -9.61,-12.22 -22.16,-12.7 -16.97,-0.65 -29.8,-1.96 -42.87,7.7 -7.07,5.22 -19.17,19.76 -24.24,27.14 -15.37,22.34 -22.61,52.88 -19.42,81.68 1.7,15.38 4.13,18.22 6.02,28.58z"/>
   <path class="fil2" d="M240.26 50.28c-4.22,0.75 -32.16,18.08 -35.79,20.5 -6.58,4.38 -21.42,14.4 -27.3,19.19 -1.86,1.52 -3.34,2.58 -5.21,4.09l-17.88 14.92c-1.12,0.99 -1.55,1.08 -2.7,2.19l-19.11 18.07c-17.63,17.55 -37.25,40.5 -50.97,61.05l-14.64 22.52c-16.62,27.64 -24.53,45.58 -36.4,75.56 -4.53,11.44 -10,29.81 -13.19,42.52 -4.91,19.54 -9.45,43.04 -11.2,63.06 -1.58,18.19 -3,35.46 -2.45,53.73 1.3,43.06 8.25,86.69 21.78,127.22 1.65,4.94 2.9,9.3 4.71,13.86 4.35,10.91 8.25,22.34 13.57,32.86 5.43,10.75 9.37,19.96 15.83,31.11 4.01,6.93 3.27,5.11 0.83,13.47l-11.99 43.72c-1.25,5.06 -2.74,9.65 -4.02,14.54l-32.15 116.89c-1.45,5.06 -2.47,9.53 -3.96,14.61l-8.01 29.6 0 0.01 129.16 -33.48c8.87,-2.22 17,-4.61 25.98,-6.84l77.65 -20.34c1.66,-0.27 7.48,3.3 10.59,4.85 19.1,9.5 36.85,17.57 57.39,24.39 25.29,8.39 52.09,15.56 78.79,19.2 21.57,2.93 31.51,4.14 52.46,4.4 7.71,0.09 13.58,1.21 23.59,0.09 2.37,-0.26 5.79,-0.07 8.27,-0.06l22.96 -1.55c21.65,-2.23 48.35,-6.56 69.12,-12.23 8.43,-2.3 16.99,-4.66 25.42,-7.4 21.13,-6.87 28.92,-10.77 47.11,-18.51 12.03,-5.13 25.77,-12.69 37.44,-19.36 17.82,-10.2 47.94,-30.78 64.32,-45.32 13.77,-12.22 18.51,-16.61 31.89,-29.77l9.56 -10.5c0.78,-0.88 1.42,-1.32 2.2,-2.2 0.86,-0.98 0.86,-1.22 1.73,-2.19 0.78,-0.88 1.42,-1.32 2.2,-2.21l14.53 -17.76c2.46,-3.06 4.62,-5.98 7,-9.14 2.44,-3.23 4.69,-6.17 6.99,-9.64l24.97 -40.07c1.94,-3.6 3.94,-6.84 5.73,-10.41 8.7,-17.43 12.86,-26.76 20.11,-44.91 1.57,-3.95 2.82,-8.26 4.41,-12.21l7.84 -24.89c2.25,-8.55 4.53,-16.81 6.41,-25.84 8.34,-40.19 9.76,-61.6 9.77,-104.02 0,-0.34 0,-0.67 0,-1l0 -2.72c-0.02,-1.27 -0.09,-2.51 -0.28,-3.81 -0.42,-2.72 -0.01,-5.35 -0.24,-8.06 -2.71,-32.67 -7.39,-66.1 -17.08,-97.24 -1.27,-4.09 -2.83,-8.43 -3.88,-12.25l-4.08 -12.04c-3.26,-9.71 -10.09,-25.57 -14.17,-34.71l-8 -16.45c-7.55,-15.15 -18.26,-32.3 -27.39,-45.95 -6.16,-9.19 -23.7,-32.75 -31.9,-41.47l-11.72 -12.74c-4.47,-5.57 -11.03,-11.36 -16.23,-16.55 -2.88,-2.87 -5.48,-4.95 -8.34,-7.81l-10.95 -9.61c-0.98,-0.76 -1.23,-1.11 -2.1,-1.81l-13.8 -11.16c-12.81,-9.97 -24.53,-17.92 -38.35,-26.76 -3.36,-2.14 -6.66,-3.99 -10.1,-6.05 -4.57,-2.73 -29.01,-16.37 -32.95,-16.99 1.53,1.67 17.92,9.54 21.06,11.26 34.56,18.89 73.24,47.87 100.52,76.15 9.34,9.69 14.5,15.77 23.08,25.35 7.89,8.82 21.06,26.78 27.64,36.44 17.31,25.4 33.01,55.05 44.41,84.18 6.11,15.61 11.45,31.72 15.83,48.67 27.84,107.69 13.42,222.43 -39.95,318.31 -13.6,24.43 -34.29,54.95 -53.11,75.5 -3.93,4.29 -11.21,13.23 -15.21,16.59 -2.67,2.25 -5.44,5.48 -8.1,8.06 -2.92,2.85 -5.14,5.29 -8.19,7.95l-8.46 7.68c-4.65,4.66 -20.85,17.32 -26.68,21.77 -111.72,85.17 -266.14,111.81 -404.13,63.99 -16.54,-5.74 -41.03,-15.79 -56.45,-23.87 -13.13,-6.88 -7.97,-5.91 -23.65,-1.8 -4.28,1.12 -8.57,2.2 -12.82,3.33l-204.56 53.3c0.83,-4.6 2.6,-9.81 3.84,-14.41 1.31,-4.86 2.64,-9.6 4.01,-14.57l23.72 -86.21c5.28,-19.19 10.49,-38.33 15.83,-57.49l11.87 -43.3c2.29,-8.45 3.4,-6.62 -0.52,-13.74 -36.86,-66.99 -60.05,-146.75 -54.48,-237.61 5.05,-82.37 31.44,-153.4 75.26,-218.64 4.86,-7.23 10.39,-14.7 15.54,-21.14 12.91,-16.13 28.32,-34.31 43.55,-47.94 7.19,-6.44 10.93,-10.45 19.34,-17.36 17.2,-14.13 33.85,-26.9 53.39,-38.61 3.31,-1.98 22.55,-12.78 23.66,-14.04z"/>
  </g>
 </g>
</svg>
